<mxfile host="app.diagrams.net" modified="2022-09-16T02:55:17.586Z" agent="5.0 (Macintosh; Intel Mac OS X 10_15_7) AppleWebKit/537.36 (KHTML, like Gecko) Chrome/105.0.0.0 Safari/537.36" etag="CsHukzkUC2k7LiADIU1F" version="20.2.6" type="github">
  <diagram id="CRlgMzRSseV2zWXnvpDi" name="Page-1">
    <mxGraphModel dx="1298" dy="728" grid="1" gridSize="10" guides="1" tooltips="1" connect="1" arrows="1" fold="1" page="1" pageScale="1" pageWidth="850" pageHeight="1100" math="0" shadow="0">
      <root>
        <mxCell id="0" />
        <mxCell id="1" parent="0" />
        <mxCell id="dWCMApMR2oIxS6H9Uube-3" style="edgeStyle=orthogonalEdgeStyle;rounded=0;orthogonalLoop=1;jettySize=auto;html=1;entryX=0;entryY=0.25;entryDx=0;entryDy=0;fontSize=14;" edge="1" parent="1" source="dWCMApMR2oIxS6H9Uube-1" target="dWCMApMR2oIxS6H9Uube-2">
          <mxGeometry relative="1" as="geometry" />
        </mxCell>
        <mxCell id="dWCMApMR2oIxS6H9Uube-4" value="Deposit SNX" style="edgeLabel;html=1;align=center;verticalAlign=middle;resizable=0;points=[];fontSize=14;" vertex="1" connectable="0" parent="dWCMApMR2oIxS6H9Uube-3">
          <mxGeometry x="-0.4526" relative="1" as="geometry">
            <mxPoint x="49" y="-10" as="offset" />
          </mxGeometry>
        </mxCell>
        <mxCell id="dWCMApMR2oIxS6H9Uube-1" value="Staker" style="shape=umlActor;verticalLabelPosition=bottom;verticalAlign=top;html=1;outlineConnect=0;fontSize=14;" vertex="1" parent="1">
          <mxGeometry x="160" y="55" width="30" height="60" as="geometry" />
        </mxCell>
        <mxCell id="dWCMApMR2oIxS6H9Uube-7" style="edgeStyle=orthogonalEdgeStyle;rounded=0;orthogonalLoop=1;jettySize=auto;html=1;exitX=1;exitY=0.25;exitDx=0;exitDy=0;entryX=0;entryY=0.25;entryDx=0;entryDy=0;fontSize=14;" edge="1" parent="1" source="dWCMApMR2oIxS6H9Uube-2" target="dWCMApMR2oIxS6H9Uube-8">
          <mxGeometry relative="1" as="geometry">
            <mxPoint x="769.96" y="85.03999999999996" as="targetPoint" />
          </mxGeometry>
        </mxCell>
        <mxCell id="dWCMApMR2oIxS6H9Uube-9" value="Get rate SNX/Synth" style="edgeLabel;html=1;align=center;verticalAlign=middle;resizable=0;points=[];fontSize=14;" vertex="1" connectable="0" parent="dWCMApMR2oIxS6H9Uube-7">
          <mxGeometry x="-0.4706" y="2" relative="1" as="geometry">
            <mxPoint x="47" y="-13" as="offset" />
          </mxGeometry>
        </mxCell>
        <mxCell id="dWCMApMR2oIxS6H9Uube-13" style="edgeStyle=orthogonalEdgeStyle;rounded=0;orthogonalLoop=1;jettySize=auto;html=1;exitX=0;exitY=0.75;exitDx=0;exitDy=0;fontSize=14;" edge="1" parent="1" source="dWCMApMR2oIxS6H9Uube-2">
          <mxGeometry relative="1" as="geometry">
            <mxPoint x="200" y="115" as="targetPoint" />
          </mxGeometry>
        </mxCell>
        <mxCell id="dWCMApMR2oIxS6H9Uube-14" value="Mint Synth" style="edgeLabel;html=1;align=center;verticalAlign=middle;resizable=0;points=[];fontSize=14;" vertex="1" connectable="0" parent="dWCMApMR2oIxS6H9Uube-13">
          <mxGeometry x="0.28" y="-1" relative="1" as="geometry">
            <mxPoint x="20" y="13" as="offset" />
          </mxGeometry>
        </mxCell>
        <mxCell id="dWCMApMR2oIxS6H9Uube-2" value="Synthetix" style="rounded=0;whiteSpace=wrap;html=1;fontSize=14;" vertex="1" parent="1">
          <mxGeometry x="450" y="70" width="120" height="60" as="geometry" />
        </mxCell>
        <mxCell id="dWCMApMR2oIxS6H9Uube-10" style="edgeStyle=orthogonalEdgeStyle;rounded=0;orthogonalLoop=1;jettySize=auto;html=1;exitX=0;exitY=0.75;exitDx=0;exitDy=0;entryX=1;entryY=0.75;entryDx=0;entryDy=0;fontSize=14;" edge="1" parent="1" source="dWCMApMR2oIxS6H9Uube-8" target="dWCMApMR2oIxS6H9Uube-2">
          <mxGeometry relative="1" as="geometry" />
        </mxCell>
        <mxCell id="dWCMApMR2oIxS6H9Uube-11" value="Return rate" style="edgeLabel;html=1;align=center;verticalAlign=middle;resizable=0;points=[];fontSize=14;" vertex="1" connectable="0" parent="dWCMApMR2oIxS6H9Uube-10">
          <mxGeometry x="0.35" relative="1" as="geometry">
            <mxPoint x="35" y="12" as="offset" />
          </mxGeometry>
        </mxCell>
        <mxCell id="dWCMApMR2oIxS6H9Uube-8" value="Price Oracle" style="rounded=1;whiteSpace=wrap;html=1;fontSize=14;" vertex="1" parent="1">
          <mxGeometry x="770" y="70" width="120" height="60" as="geometry" />
        </mxCell>
        <mxCell id="dWCMApMR2oIxS6H9Uube-15" value="Stake SNX to mint Synth (sBTC, sETH, ...)" style="text;html=1;strokeColor=none;fillColor=none;align=center;verticalAlign=middle;whiteSpace=wrap;rounded=0;fontSize=14;fontStyle=1" vertex="1" parent="1">
          <mxGeometry x="100" y="10" width="400" height="30" as="geometry" />
        </mxCell>
        <mxCell id="dWCMApMR2oIxS6H9Uube-24" value="exchange()" style="edgeStyle=orthogonalEdgeStyle;rounded=0;orthogonalLoop=1;jettySize=auto;html=1;entryX=0;entryY=0.5;entryDx=0;entryDy=0;fontSize=14;" edge="1" parent="1" source="dWCMApMR2oIxS6H9Uube-16" target="dWCMApMR2oIxS6H9Uube-19">
          <mxGeometry relative="1" as="geometry" />
        </mxCell>
        <mxCell id="dWCMApMR2oIxS6H9Uube-16" value="Staker" style="shape=umlActor;verticalLabelPosition=bottom;verticalAlign=top;html=1;outlineConnect=0;fontSize=14;" vertex="1" parent="1">
          <mxGeometry x="160" y="350" width="30" height="60" as="geometry" />
        </mxCell>
        <mxCell id="dWCMApMR2oIxS6H9Uube-18" value="Trade Synths" style="text;html=1;strokeColor=none;fillColor=none;align=center;verticalAlign=middle;whiteSpace=wrap;rounded=0;fontSize=14;fontStyle=1" vertex="1" parent="1">
          <mxGeometry y="300" width="400" height="30" as="geometry" />
        </mxCell>
        <mxCell id="dWCMApMR2oIxS6H9Uube-25" style="edgeStyle=orthogonalEdgeStyle;rounded=0;orthogonalLoop=1;jettySize=auto;html=1;exitX=0.5;exitY=1;exitDx=0;exitDy=0;fontSize=14;" edge="1" parent="1" source="dWCMApMR2oIxS6H9Uube-19" target="dWCMApMR2oIxS6H9Uube-20">
          <mxGeometry relative="1" as="geometry" />
        </mxCell>
        <mxCell id="dWCMApMR2oIxS6H9Uube-26" value="exchange()" style="edgeLabel;html=1;align=center;verticalAlign=middle;resizable=0;points=[];fontSize=14;" vertex="1" connectable="0" parent="dWCMApMR2oIxS6H9Uube-25">
          <mxGeometry x="0.0357" y="-4" relative="1" as="geometry">
            <mxPoint y="1" as="offset" />
          </mxGeometry>
        </mxCell>
        <mxCell id="dWCMApMR2oIxS6H9Uube-19" value="&lt;b&gt;Synthetix&lt;/b&gt;&lt;br&gt;Entry point for users" style="rounded=0;whiteSpace=wrap;html=1;fontSize=14;" vertex="1" parent="1">
          <mxGeometry x="420" y="350" width="180" height="60" as="geometry" />
        </mxCell>
        <mxCell id="dWCMApMR2oIxS6H9Uube-27" style="edgeStyle=orthogonalEdgeStyle;rounded=0;orthogonalLoop=1;jettySize=auto;html=1;entryX=0.5;entryY=0;entryDx=0;entryDy=0;fontSize=14;" edge="1" parent="1" source="dWCMApMR2oIxS6H9Uube-20" target="dWCMApMR2oIxS6H9Uube-21">
          <mxGeometry relative="1" as="geometry" />
        </mxCell>
        <mxCell id="dWCMApMR2oIxS6H9Uube-30" value="_getAmountsForAtomicExchangeMinusFees()&lt;br&gt;or effectiveValueAndRates()" style="edgeLabel;html=1;align=center;verticalAlign=middle;resizable=0;points=[];fontSize=14;" vertex="1" connectable="0" parent="dWCMApMR2oIxS6H9Uube-27">
          <mxGeometry x="-0.1333" y="-2" relative="1" as="geometry">
            <mxPoint as="offset" />
          </mxGeometry>
        </mxCell>
        <mxCell id="dWCMApMR2oIxS6H9Uube-20" value="&lt;b&gt;Exchanger&lt;/b&gt;&lt;br&gt;- Get the rates from ExchangeRates&lt;br&gt;- Validate to make sure rates are not too violatile&lt;br&gt;- Get fee rate for each pair and deduct fee&lt;br&gt;- Update balancer of user (mint/burn)" style="rounded=0;whiteSpace=wrap;html=1;fontSize=14;" vertex="1" parent="1">
          <mxGeometry x="325" y="540" width="370" height="140" as="geometry" />
        </mxCell>
        <mxCell id="dWCMApMR2oIxS6H9Uube-28" style="edgeStyle=orthogonalEdgeStyle;rounded=0;orthogonalLoop=1;jettySize=auto;html=1;entryX=0;entryY=0.5;entryDx=0;entryDy=0;fontSize=14;exitX=1;exitY=0.25;exitDx=0;exitDy=0;startArrow=classic;startFill=1;endArrow=none;endFill=0;" edge="1" parent="1" source="dWCMApMR2oIxS6H9Uube-21" target="dWCMApMR2oIxS6H9Uube-22">
          <mxGeometry relative="1" as="geometry" />
        </mxCell>
        <mxCell id="dWCMApMR2oIxS6H9Uube-31" value="get rate" style="edgeLabel;html=1;align=center;verticalAlign=middle;resizable=0;points=[];fontSize=14;" vertex="1" connectable="0" parent="dWCMApMR2oIxS6H9Uube-28">
          <mxGeometry x="0.363" y="-3" relative="1" as="geometry">
            <mxPoint x="29" y="-13" as="offset" />
          </mxGeometry>
        </mxCell>
        <mxCell id="dWCMApMR2oIxS6H9Uube-29" style="edgeStyle=orthogonalEdgeStyle;rounded=0;orthogonalLoop=1;jettySize=auto;html=1;entryX=0;entryY=0.5;entryDx=0;entryDy=0;fontSize=14;startArrow=classic;startFill=1;endArrow=none;endFill=0;" edge="1" parent="1" source="dWCMApMR2oIxS6H9Uube-21" target="dWCMApMR2oIxS6H9Uube-23">
          <mxGeometry relative="1" as="geometry">
            <Array as="points">
              <mxPoint x="700" y="840" />
              <mxPoint x="700" y="880" />
            </Array>
          </mxGeometry>
        </mxCell>
        <mxCell id="dWCMApMR2oIxS6H9Uube-21" value="&lt;b&gt;ExchangeRates&lt;/b&gt;&lt;br&gt;- Store exchange rates" style="rounded=0;whiteSpace=wrap;html=1;fontSize=14;" vertex="1" parent="1">
          <mxGeometry x="400" y="800" width="220" height="60" as="geometry" />
        </mxCell>
        <mxCell id="dWCMApMR2oIxS6H9Uube-22" value="Chainlink Price Oracle" style="rounded=1;whiteSpace=wrap;html=1;fontSize=14;" vertex="1" parent="1">
          <mxGeometry x="920" y="680" width="230" height="60" as="geometry" />
        </mxCell>
        <mxCell id="dWCMApMR2oIxS6H9Uube-23" value="&lt;b&gt;DexPriceAggregatorUniswapV3 Price Oracle&lt;/b&gt;&lt;br&gt;- Only on Ethereum for some Synths" style="rounded=1;whiteSpace=wrap;html=1;fontSize=14;" vertex="1" parent="1">
          <mxGeometry x="920" y="820" width="280" height="120" as="geometry" />
        </mxCell>
        <mxCell id="dWCMApMR2oIxS6H9Uube-32" value="get rate" style="edgeLabel;html=1;align=center;verticalAlign=middle;resizable=0;points=[];fontSize=14;" vertex="1" connectable="0" parent="1">
          <mxGeometry x="810" y="870" as="geometry" />
        </mxCell>
      </root>
    </mxGraphModel>
  </diagram>
</mxfile>
